# xmcd
#
# Track frame offsets:
#	150
#	20915
#	38312
#	57835
#	79160
#	96527
#	114940
#	134025
#	147205
#	160607
#	172075
#	191972
#
# Disc length: 2793 seconds
#
# Revision: 1
# Processed by: cddbd v1.4PL0 Copyright (c) Steve Scherf et al.
# Submitted via: audiograbber 1.82.02
#
DISCID=a70ae70c
DTITLE=Renée Martel - Country
DYEAR=1998
DGENRE=Country
TTITLE0=Que la lune est belle ce soir
TTITLE1=Mille après mille
TTITLE2=Your cheatin' heart
TTITLE3=Entre deux amours
TTITLE4=Quand le soleil dit bonjour aux montagnes
TTITLE5=Mon coeur est comme un train
TTITLE6=Un jour à la fois
TTITLE7=I fall to pieces
TTITLE8=Bonsoir mon amour
TTITLE9=Stand by your man
TTITLE10=Mon enfant je te pardonne
TTITLE11=Infame destin
EXTD=
EXTT0=
EXTT1=
EXTT2=
EXTT3=
EXTT4=
EXTT5=
EXTT6=
EXTT7=
EXTT8=
EXTT9=
EXTT10=
EXTT11=
PLAYORDER=
